<svg width="100" height="100" viewBox="0 0 100 100" fill="none" xmlns="http://www.w3.org/2000/svg">
<g id="vuesax/outline/tick-circle">
<g id="tick-circle">
<path id="Vector" d="M49.9999 94.2916C25.5677 94.2916 5.70825 74.4321 5.70825 49.9999C5.70825 25.5677 25.5677 5.70825 49.9999 5.70825C74.4321 5.70825 94.2916 25.5677 94.2916 49.9999C94.2916 74.4321 74.4321 94.2916 49.9999 94.2916ZM49.9999 10.9583C28.4738 10.9583 10.9583 28.4738 10.9583 49.9999C10.9583 71.5261 28.4738 89.0416 49.9999 89.0416C71.5261 89.0416 89.0416 71.5261 89.0416 49.9999C89.0416 28.4738 71.5261 10.9583 49.9999 10.9583Z" fill="#08B839" stroke="black"/>
<path id="Vector_2" d="M44.0833 64.9166C43.2499 64.9166 42.4583 64.5833 41.8749 63.9999L30.0833 52.2083C28.8749 50.9999 28.8749 48.9999 30.0833 47.7916C31.2916 46.5833 33.2916 46.5833 34.4999 47.7916L44.0833 57.3749L65.4999 35.9583C66.7083 34.7499 68.7083 34.7499 69.9166 35.9583C71.1249 37.1666 71.1249 39.1666 69.9166 40.3749L46.2916 63.9999C45.7083 64.5833 44.9166 64.9166 44.0833 64.9166Z" fill="#08B839"/>
</g>
</g>
</svg>
